<?xml version="1.0" encoding="UTF-8" standalone="no"?>
<!-- Created with Inkscape (http://www.inkscape.org/) -->

<svg
   version="1.1"
   id="svg1"
   width="1000"
   height="869"
   viewBox="0 0 1000 869"
   sodipodi:docname="logo.svg"
   inkscape:version="1.4.3 (0d15f75, 2025-12-25)"
   xmlns:inkscape="http://www.inkscape.org/namespaces/inkscape"
   xmlns:sodipodi="http://sodipodi.sourceforge.net/DTD/sodipodi-0.dtd"
   xmlns="http://www.w3.org/2000/svg"
   xmlns:svg="http://www.w3.org/2000/svg">
  <defs
     id="defs1" />
  <sodipodi:namedview
     id="namedview1"
     pagecolor="#ffffff"
     bordercolor="#000000"
     borderopacity="0.25"
     inkscape:showpageshadow="2"
     inkscape:pageopacity="0.0"
     inkscape:pagecheckerboard="0"
     inkscape:deskcolor="#d1d1d1"
     inkscape:zoom="0.92865362"
     inkscape:cx="500.18649"
     inkscape:cy="434.5"
     inkscape:window-width="1920"
     inkscape:window-height="1009"
     inkscape:window-x="-8"
     inkscape:window-y="-8"
     inkscape:window-maximized="1"
     inkscape:current-layer="svg1" />
  <path
     style="fill:#000000"
     d="m 949.5,857.46841 c -22,-5.62244 -58,-14.80932 -80,-20.41528 -22,-5.60596 -44.95,-11.48257 -51,-13.05912 C 808.48157,821.38334 740.35898,803.94484 668,785.46796 626.85465,774.96148 539.93793,752.71523 515.79874,746.5122 l -20.70125,-5.3196 -29.12476,4.89663 c -122.04575,20.51906 -278.60542,61.07393 -432.400673,112.0081 -13.49184,4.46825 -24.7342477,7.66858 -25.7766416,7.33774 -2.6985957,-0.8565 -5.1113723,-5.04006 -4.4428717,-7.70358 0.330852,-1.31822 7.2449103,-7.97695 16.3602363,-15.75607 40.287909,-34.38214 80.48754,-70.36999 132.2844,-118.42475 24.01643,-22.28134 28.33281,-26.40627 73.05049,-69.8104 38.05884,-36.94089 87.51047,-88.20766 118.87906,-123.24258 l 11.64164,-13.00231 4.16387,-15.49769 C 364.7207,483.43093 374.89448,445.49107 385.8768,404.5 398.58685,357.06022 422.14928,269.16095 430.50908,238 c 4.20526,-15.675 8.23693,-30.75 8.95927,-33.5 0.72234,-2.75 5.66903,-21.2 10.99265,-41 20.96042,-77.957527 30.60565,-113.899134 36.09417,-134.5 3.15044,-11.825 6.40909,-22.2875 7.24144,-23.25 2.23961,-2.5898058 7.8078,-2.2994462 9.58844,0.5 0.78713,1.2375 4.20772,15.075 7.60131,30.75 10.7176,49.504649 20.60705,91.6122 36.52098,155.5 28.75358,115.43358 52.79613,199.60335 82.26532,288 l 12.66824,38 8.49015,9.5 c 33.47809,37.46007 116.59004,122.09362 163.59799,166.59312 52.42901,49.63127 114.59353,105.73611 165.47096,149.34117 8.525,7.30644 15.87838,13.94333 16.34085,14.74863 1.29751,2.25936 -1.18913,7.07051 -4.18529,8.09769 -2.09334,0.71767 -11.12417,-1.25387 -42.65556,-9.3122 z m 12.95,-11.30495 C 961.9275,845.70336 952.275,837.28005 941,827.445 891.42442,784.2008 831.6897,729.51485 785.5,685.08783 759.34083,659.92694 696.22756,596.26807 676.09315,574.73517 c -10.67377,-11.41514 -19.56993,-20.59172 -19.76925,-20.3924 -0.19932,0.19931 3.86446,10.89123 9.03062,23.75981 34.64036,86.28698 67.91791,141.83888 96.7797,161.55927 7.44798,5.08897 9.01097,7.82983 6.8101,11.94218 -2.30862,4.31371 -5.16053,4.07758 -16.76046,-1.38767 -18.80204,-8.85851 -39.44522,-14.24271 -68.68386,-17.91429 -19.51121,-2.45008 -83.56259,-2.4323 -111,0.0308 -30.66721,2.75304 -40.72623,3.96234 -39.32067,4.72712 0.72637,0.39522 18.42067,5.0792 39.32067,10.40884 20.9,5.32965 53.525,13.67698 72.5,18.54964 18.975,4.87266 87.6,22.44128 152.5,39.04139 64.9,16.6001 128.125,32.79069 140.5,35.97908 23.11134,5.95458 26.10524,6.58208 24.45,5.12452 z M 116,818.17584 c 109.66682,-33.4191 218.45711,-60.94394 306.5,-77.54703 15.95,-3.00784 31.1375,-5.7809 33.75,-6.16235 2.6125,-0.38145 4.74947,-0.97995 4.74883,-1.33 -6.4e-4,-0.35005 -18.33814,-5.30359 -40.75,-11.00786 C 376.1218,710.89737 366.69478,708.20583 357.5,704.21293 335.15222,694.50826 322.57666,676.39873 322.63131,654 c 0.0301,-12.32026 1.33362,-18.46523 13.79727,-65.04013 6.18423,-23.10958 10.9666,-41.89196 10.62751,-41.73864 C 346.71699,547.37455 338.15136,556.5 328.02136,567.5 302.34264,595.38409 211.52428,685.99633 175.5,719.67519 c -37.17862,34.75805 -71.7006,66.17148 -102.984309,93.71103 -13.191371,11.61258 -25.791371,22.77575 -28,24.80706 L 40.5,841.88656 l 23,-7.36055 c 12.65,-4.0483 36.275,-11.40588 52.5,-16.35017 z M 510.25776,726.0269 c 48.1795,-6.6747 73.97624,-8.49783 120.24224,-8.49785 48.12911,-2e-5 58.46904,0.99163 96.47836,9.25275 2.338,0.50815 2.39463,0.4219 1,-1.52292 -18.08508,-25.21976 -22.49502,-32.14122 -34.30913,-53.84871 -16.71397,-30.71059 -35.1772,-73.04646 -55.41672,-127.06959 l -6.80335,-18.15942 -15.66491,-18.34058 c -40.41428,-47.31729 -72.69772,-91.06735 -92.68745,-125.60871 -6.5745,-11.36045 -17.51056,-33.85245 -21.13991,-43.4781 -1.81377,-4.81042 -3.38946,-8.63542 -3.50152,-8.5 -0.11207,0.13543 -1.8909,4.52123 -3.95296,9.74623 -4.81234,12.19383 -16.5719,35.43253 -25.04866,49.5 -20.15649,33.45037 -54.87382,79.9783 -90.12542,120.78549 l -11.9087,13.78548 -12.74332,47.71452 C 337.13898,637.45012 336.55813,640.08122 336.5263,654 c -0.0242,10.5754 0.19683,11.95425 2.74893,17.14982 5.90681,12.02512 14.5073,18.28171 34.09486,24.80297 6.67145,2.22112 35.30491,9.87696 63.62991,17.01298 28.325,7.13602 52.85,13.39933 54.5,13.91845 4.09031,1.28691 2.88141,1.34217 18.75776,-0.85732 z M 397.15631,468.5 c 33.10693,-40.81518 62.94141,-85.60277 78.01863,-117.12173 9.53933,-19.942 16.78674,-44.58404 16.84037,-57.25926 0.0186,-4.39865 0.79454,-5.74084 4.01292,-6.94155 2.6683,-0.99548 6.89677,0.10738 8.18611,2.1351 0.41527,0.65309 0.76193,3.04099 0.77035,5.30645 0.008,2.26546 0.71086,8.11546 1.56098,13 5.99869,34.46685 33.4952,83.62309 81.32173,145.38099 10.96322,14.1567 30.47822,37.98771 30.82435,37.64158 0.11111,-0.11111 -2.26976,-7.83842 -5.29083,-17.1718 C 574.33074,352.76512 540.80805,228.71269 507.47892,81.5 498.34239,41.144548 497.987,39.67967 497.46052,40.206143 497.23611,40.430558 493.86521,52.513482 489.96964,67.057085 455.84737,194.44814 450.25662,215.31041 443.48974,240.5 428.71884,295.48439 386.26611,453.76544 381.43539,471.86384 378.44593,483.06395 376,492.65205 376,493.17074 c 0,1.04825 5.44306,-5.29899 21.15631,-24.67074 z"
     id="path1"
     inkscape:label="path1" />
</svg>
